# xmcd
#
# Track frame offsets: 
#        150
#        17892
#        34601
#        46560
#        62421
#        85395
#        98973
#        115045
#        133951
#        149174
#        164550
#        189160
#        203668
#        219658
#        235840
#        253811
#        269816
#
# Disc length: 3857 seconds
#
# Revision: 0
# Processed by: cddbd v1.5.2PL0 Copyright (c) Steve Scherf et al.
# Submitted via: ExactAudioCopy v0.99pb4
#
DISCID=fb0f0f11
DTITLE=Various Artist - Sin City - CD 2
DYEAR=2007
DGENRE=Americana
TTITLE0=Shurman Featuring Al Perkins - Country Ain't Country
TTITLE1=The Flying Burrito Brothers - Hot Buttiro #1
TTITLE2=Steve Earle - Tennessee Blues
TTITLE3=John Fogerty - Gunslinger
TTITLE4=Lisa Hayes - She's A Beauty
TTITLE5=Macon Greyson - 20th Century Accidents
TTITLE6=Travis Howard - Lean Into Me
TTITLE7=Kevin Montgomery - True
TTITLE8=The Mother Truckers - No Mercy
TTITLE9=Stonehoney - A Million Pretty Girls
TTITLE10=Gina Villalobos - Somebody Save Me
TTITLE11=Ferraby Lionheart - Small Planet
TTITLE12=Rich McCulley - Forever California
TTITLE13=The Defibulators - Get What's Coming
TTITLE14=Spindrift - The Legend Of God's Gun
TTITLE15=Great Lake Swimmers - Your Rocky Spine
TTITLE16=Calhoun - These Are The Dead Boys
EXTD=
EXTT0=
EXTT1=
EXTT2=
EXTT3=
EXTT4=
EXTT5=
EXTT6=
EXTT7=
EXTT8=
EXTT9=
EXTT10=
EXTT11=
EXTT12=
EXTT13=
EXTT14=
EXTT15=
EXTT16=
PLAYORDER=
